<?xml version="1.0" encoding="utf-8"?><svg xmlns="http://www.w3.org/2000/svg" xmlns:xlink="http://www.w3.org/1999/xlink"><symbol viewBox="0 0 37 25" id="arrow-back" xmlns="http://www.w3.org/2000/svg"><path fill-rule="evenodd" clip-rule="evenodd" d="M2.959 12.47L13.03 23 11 24.942l-11-11.5v-1.943L11 0l2.03 1.942L2.959 12.47z"/><path fill-rule="evenodd" clip-rule="evenodd" d="M36.015 13.875h-35v-2.809h35v2.81z"/></symbol><symbol viewBox="0 0 37 25" id="arrow-next" xmlns="http://www.w3.org/2000/svg"><path fill-rule="evenodd" clip-rule="evenodd" d="M33.056 12.5L22.985 1.97l2.03-1.94 11 11.5v1.941l-11 11.5-2.03-1.942 10.071-10.528z"/><path fill-rule="evenodd" clip-rule="evenodd" d="M0 11.095h35v2.81H0v-2.81z"/></symbol><symbol viewBox="0 0 254 104" id="logotip" xmlns="http://www.w3.org/2000/svg"><path fill-rule="evenodd" clip-rule="evenodd" d="M0 65.112v-3.857c0-3.859.171-11.66 18.687-15.603l4.844-.985c3.643-.686 4.115-1.2 4.115-2.058v-.043c0-.985-.857-1.8-5.83-1.8-6.6 0-6.643 2.83-6.772 3.86H.471v-.259c0-4.415 1.672-11.744 19.931-11.744h1.929c17.273 0 20.445 4.543 20.445 9.986v.258c0 5.658-4.286 7.887-16.887 9.73-1.672.213-3.43.557-4.801.771-7.158 1.157-8.658 2.23-8.658 3.215h17.916v-3.386h12.859v11.915H0zm65.025.601c-18.559 0-20.402-7.072-20.402-11.188v-.385h16.545c.128 1.5.771 3.9 6.386 3.9h.171c5.144 0 6.173-1.243 6.173-2.571v-.086c0-1.33-.6-2.358-6.644-2.572l-6.344-.171c-12.815-.343-15.773-4.886-15.773-9.902v-.385c0-5.615 4.243-9.687 19.374-9.687h4.715c16.544 0 20.36 4.758 20.36 10.029v.3h-16.29c-.128-1.157-.728-2.957-6.129-2.957h-.214c-4.972 0-5.658.858-5.658 2.015v.043c0 1.242 1.114 2.056 6.515 2.185l6.087.129c12.301.343 16.844 3.215 16.844 9.73v.6c0 5.53-3.386 10.973-20.874 10.973h-4.843zm27.693-32.49h13.844v13.03c.986-.985 4.801-4.715 12.344-4.715h.258c9.258 0 11.358 5.573 11.358 8.53v15.045h-13.844v-10.63c0-2.614-1.158-4.801-4.929-4.801-3.601 0-5.187 2.228-5.187 4.887v10.544H92.718v-31.89zm61.553 20.917l-9.13 1.415c-2.443.385-3.472.814-3.472 2.143v.043c0 1.242.943 2.614 4.201 2.614 5.101 0 8.401-2.743 8.401-5.486v-.73zm-10.416 11.4h-.557c-7.758 0-10.715-3.6-10.715-7.543v-.3c0-4.243 2.786-6.257 9.687-6.9l10.543-.986c1.072-.13 1.458-.472 1.458-1.2 0-.857-.386-1.886-6.001-1.886h-.214c-5.701 0-5.915 1.8-6.044 2.572h-8.872v-.086c0-3.043.9-7.8 13.758-7.8h2.358c13.373 0 14.23 4.114 14.23 7.457v8.83c0 .685.215 1.157 1.201 1.157h1.242v6.258h-7.758c-1.843 0-3.3-.986-3.643-3.172-.986 1.243-3.901 3.6-10.673 3.6zm33.907-.428h-9.558v-23.06h9.472v4.073c.815-1.287 3.601-4.587 9.344-4.587h.471c6.687 0 9.387 4.33 9.387 10.287v1.33h-9.215c0-2.959-1.286-5.53-4.886-5.53h-.043c-3.215 0-4.972 2.614-4.972 5.572v11.915zm31.506-11.53c0 2.872 2.7 6.001 8.529 6.001h.215c6.172 0 7.886-3.214 7.886-6.001v-.171c0-2.958-1.714-5.958-7.886-5.958h-.215c-5.957 0-8.529 3-8.529 5.958v.171zm0-11.529v3.3c1.029-.9 4.715-3.857 11.701-3.857h.772c10.458 0 13.93 5.229 13.93 11.572v.815c0 6.043-3.6 11.787-14.23 11.787h-.686c-6.858 0-10.716-2.958-11.487-3.815V73.17h-9.558V42.053h9.558zm33.333-6.011l-7.051-6.977-3.865 3.907 8.984 8.889h3.865l8.984-8.89-3.865-3.906-7.052 6.977zm1.351 28.12h-.367c-.48 0-1.204-.087-1.518-1.592l-.157-.76c-.083-.44-.17-.48-.271-.48-.126 0-.244.101-.244.816 0 .817.296.886.458.9v1.06h-.035c-.371 0-1.17-.157-1.17-1.838v-.174c0-1.528.485-1.837 1-1.837h.009c.488 0 .798.187.973 1.253l.148.89c.14.768.314.855.406.855V61.2h-.419v-1h1.187v3.962zm-1.667-7.717c-.367 0-.847.227-.847 1.222 0 1.012.48 1.221.847 1.221h.052c.367 0 .878-.23.878-1.22 0-.992-.498-1.223-.869-1.223h-.061zm.1-1.064c.567 0 1.624.261 1.624 2.19v.192c0 1.92-1.052 2.191-1.624 2.191h-.131c-.575 0-1.606-.27-1.606-2.19v-.193c0-1.925 1.031-2.19 1.606-2.19h.131zm-.445-.208h-.611c-.035-.56-.284-.82-.624-.97v-.793h3.247v1.008h-2.012v.755zm.345-5.657c-.367 0-.847.228-.847 1.223 0 1.01.48 1.22.847 1.22h.052c.367 0 .878-.23.878-1.22 0-.991-.498-1.223-.869-1.223h-.061zm.1-1.064c.567 0 1.624.26 1.624 2.19v.192c0 1.92-1.052 2.192-1.624 2.192h-.131c-.575 0-1.606-.272-1.606-2.192v-.191c0-1.926 1.031-2.191 1.606-2.191h.131z"/><path fill-rule="evenodd" clip-rule="evenodd" d="M20.871 39.991L6.461 38.11l2.891-5.015 8.97 1.626-5.93-6.902 2.915-5.058 8.995 1.583-5.955-6.859 2.592-4.496 9.04 11.2-2.94 5.101-9.342-1.58 6.052 7.288-2.878 4.994zm3.846-35.245l5-2.445 3.246 6.636c.275-.801 1.235-3.438 4.822-5.193l.158-.076c4.17-2.041 7.036-.497 8.176 1.834l3.73 7.622-5.045 2.468-2.917-5.963c-.91-1.862-2.479-2.511-4.698-1.425-2.243 1.097-3.064 3.11-2.098 5.083l2.786 5.694-5 2.447-8.16-16.682zm26.562 9.393l3.144.02c.523.003.649-.146.65-.42.002-.276-.22-.651-.614-1.426L48.124 0l5.987.036 4.259 9.107L62.617.089l5.588.034-7.123 14.276c-1.288 2.51-2.543 3.776-4.963 3.76l-4.864-.03.024-3.99zm38.741-.112c1.851.906 3.384 1.347 4.184.488.732-.784.786-1.758-1.204-3.61-1.716-1.6-2.525-1.502-3.069-.917-.63.674-.412 1.832.09 4.04zm-2.535 8.246l-2.158-8.664c-1.057-.439-2.209-.557-3.077.373l-.05.056c-.953 1.022-.899 3.086 1.986 5.774 1.168 1.09 2.273 1.914 3.3 2.461zm4.691 9.863c-2.045-1.905-2.93-3.515-3.506-5.279-2.089-.685-4.396-2.016-6.824-4.279-6.863-6.398-6.493-9.906-4.587-11.95l.187-.202c1.684-1.807 4.114-1.52 7.261.628-.352-1.964.013-3.638 1.034-4.733l.136-.146c1.447-1.55 3.882-2.59 8.847 2.038l.967.901c4.965 4.628 3.82 7.175 2.611 8.472l-.085.09c-1.327 1.423-3.522 1.767-7.549-.794l1.374 5.956c1.89-.492 3.415-1.834 4.197-2.674l3.998 3.726c-1.416 1.41-3.709 2.991-6.696 3.378.58.951 1.353 1.843 2.54 2.948l-3.905 1.92zm3.344 11.022l13.577-5.173-.168 5.786-8.667 2.82 8.491 3.264-.169 5.835-8.668 2.868 8.492 3.217-.15 5.187-13.266-5.575.171-5.885 8.972-3.035-8.782-3.549.167-5.76zM90.859 80.66l.102.072c1.356.975 3.382 1.108 5.564-1.93l.015-.02c2.214-3.08 1.447-4.923.07-5.913l-.103-.072c-1.276-.918-3.428-1.174-5.64 1.907-2.214 3.081-1.285 5.038-.008 5.955zm-2.421-8.777c4.543-6.323 8.754-5.6 11.269-3.795l.363.263c2.513 1.805 4.435 5.46-.107 11.783l-1.033 1.438c-4.778 6.648-8.647 5.62-11.119 3.842l-.365-.262c-2.513-1.805-4.861-5.123-.028-11.85l1.02-1.419zm-9.124 11.039l9.917 10.627-5.423 2.027-5.884-6.965.18 9.098-5.47 2.046-5.93-6.948.227 9.082-4.863 1.817.16-14.393 5.515-2.064 6.199 7.167-.027-9.474 5.4-2.02z" fill="#AFDE0E"/></symbol><symbol viewBox="0 0 6 11" id="marker" xmlns="http://www.w3.org/2000/svg"><path d="M.586.653a.39.39 0 0 0 0 .553l4.048 4.057c.152.152.152.4 0 .553L.585 9.873a.39.39 0 1 0 .553.551l4.048-4.056c.229-.229.343-.529.343-.83 0-.299-.114-.599-.342-.827L1.138.654a.39.39 0 0 0-.552 0z"/></symbol><symbol viewBox="0 0 27 27" id="soc-be" xmlns="http://www.w3.org/2000/svg"><path fill-rule="evenodd" clip-rule="evenodd" d="M7.888 3.166A4.722 4.722 0 0 0 3.166 7.89v11.158a4.721 4.721 0 0 0 4.722 4.722h11.16a4.72 4.72 0 0 0 4.722-4.722V7.89a4.72 4.72 0 0 0-4.722-4.724H7.888zM.834 7.89A7.055 7.055 0 0 1 7.888.834h11.16a7.054 7.054 0 0 1 7.054 7.056v11.158a7.053 7.053 0 0 1-7.054 7.054H7.888a7.054 7.054 0 0 1-7.054-7.054V7.89z"/><path fill-rule="evenodd" clip-rule="evenodd" d="M12.382 12.833c.281-.142.494-.3.64-.47.26-.307.387-.714.387-1.218 0-.491-.128-.911-.384-1.263-.427-.573-1.15-.867-2.173-.882H6.8v8.27h3.778c.426 0 .82-.036 1.184-.11.365-.076.68-.214.948-.416a2.29 2.29 0 0 0 .593-.65c.25-.389.374-.829.374-1.32 0-.474-.11-.878-.326-1.21-.22-.333-.542-.577-.97-.731zm-3.91-2.396h1.824c.401 0 .732.043.992.128.3.125.45.379.45.765 0 .347-.114.59-.341.726-.228.137-.524.205-.887.205H8.471v-1.824zm2.036 5.399c.363 0 .647-.049.85-.146.367-.182.55-.524.55-1.033 0-.432-.177-.727-.533-.888-.2-.089-.48-.136-.84-.139H8.472v2.206h2.037z"/><path d="M15.47 9.386h3.593v1.03H15.47v-1.03z"/><path fill-rule="evenodd" clip-rule="evenodd" d="M19.816 12.184c.256.364.42.786.495 1.265.044.28.061.686.055 1.214h-4.518c.027.613.241 1.044.65 1.29.247.153.544.23.894.23.368 0 .669-.093.9-.28.127-.101.238-.241.333-.42h1.656c-.044.362-.245.73-.6 1.106-.556.593-1.334.891-2.334.891a3.4 3.4 0 0 1-2.183-.752c-.633-.501-.947-1.318-.947-2.448 0-1.06.285-1.874.854-2.44.57-.563 1.308-.847 2.216-.847a3.554 3.554 0 0 1 1.459.286c.433.191.79.493 1.07.905zm-3.495.477c-.229.233-.373.549-.432.946h2.794c-.03-.425-.175-.746-.432-.967-.26-.22-.58-.33-.962-.33-.415.001-.739.118-.968.35z"/></symbol><symbol viewBox="0 0 27 27" id="soc-fb" xmlns="http://www.w3.org/2000/svg"><path fill-rule="evenodd" clip-rule="evenodd" d="M14.937 12.136v-1.918c0-.834.214-1.282 1.722-1.282h1.865v-3.2h-2.87c-3.586 0-5.021 2.112-5.021 4.482v1.918h-2.87v3.2h2.87v9.6h4.304v-9.6h3.157l.43-3.2h-3.587z"/><path fill-rule="evenodd" clip-rule="evenodd" d="M7.877 3.164a4.714 4.714 0 0 0-4.713 4.714V19.06a4.714 4.714 0 0 0 4.713 4.713h11.1a4.714 4.714 0 0 0 4.713-4.713V7.88a4.715 4.715 0 0 0-4.714-4.715h-11.1zM.837 7.878A7.042 7.042 0 0 1 7.876.836h11.1a7.043 7.043 0 0 1 7.041 7.042V19.06a7.042 7.042 0 0 1-7.042 7.041h-11.1a7.042 7.042 0 0 1-7.04-7.04V7.877z"/></symbol><symbol viewBox="0 0 27 27" id="soc-inst" xmlns="http://www.w3.org/2000/svg"><path fill-rule="evenodd" clip-rule="evenodd" d="M7.888 3.166A4.722 4.722 0 0 0 3.166 7.89v11.158a4.721 4.721 0 0 0 4.722 4.722h11.16a4.72 4.72 0 0 0 4.722-4.722V7.89a4.72 4.72 0 0 0-4.722-4.724H7.888zM.834 7.89A7.055 7.055 0 0 1 7.888.834h11.16a7.054 7.054 0 0 1 7.054 7.056v11.158a7.053 7.053 0 0 1-7.054 7.054H7.888a7.054 7.054 0 0 1-7.054-7.054V7.89z"/><path fill-rule="evenodd" clip-rule="evenodd" d="M13.468 8.997a4.47 4.47 0 1 0 0 8.94 4.47 4.47 0 0 0 0-8.94zM6.665 13.47a6.803 6.803 0 1 1 13.606 0 6.802 6.802 0 0 1-6.803 6.802 6.802 6.802 0 0 1-6.803-6.802zm14.578-7.194a1.362 1.362 0 1 1-2.723 0 1.362 1.362 0 0 1 2.723 0z"/></symbol><symbol viewBox="0 0 27 27" id="soc-v" xmlns="http://www.w3.org/2000/svg"><path fill-rule="evenodd" clip-rule="evenodd" d="M7.888 3.166a4.721 4.721 0 0 0-4.722 4.722v11.158a4.722 4.722 0 0 0 4.722 4.724h11.16a4.722 4.722 0 0 0 4.722-4.724V7.888a4.721 4.721 0 0 0-4.722-4.722H7.888zM.834 7.888A7.054 7.054 0 0 1 7.888.834h11.16a7.054 7.054 0 0 1 7.054 7.054v11.158a7.055 7.055 0 0 1-7.054 7.056H7.888a7.055 7.055 0 0 1-7.054-7.056V7.888z"/><path fill-rule="evenodd" clip-rule="evenodd" d="M19.48 12.327c-1.439 3.072-4.91 7.252-7.103 7.252-2.162 0-2.474-4.61-3.654-7.678-.581-1.509-.957-1.163-2.045-.402l-.666-.856c1.589-1.396 3.18-3.017 4.155-3.108 1.1-.108 1.778.644 2.03 2.256.335 2.115.802 5.398 1.618 5.398.636 0 2.204-2.605 2.284-3.536.144-1.362-1.002-1.405-1.997-.98 1.573-5.153 8.118-4.202 5.377 1.654z"/></symbol><symbol viewBox="0 0 33 25" id="soc-yb" xmlns="http://www.w3.org/2000/svg"><path fill-rule="evenodd" clip-rule="evenodd" d="M11 7.156L12.858 6l10.361 5.104.001 2.311-10.361 5.12L11 17.378V7.156zm2.577 2.07v6.08l6.16-3.044-6.16-3.035z"/><path fill-rule="evenodd" clip-rule="evenodd" d="M9 2.5C5.595 2.5 2.5 4.418 2.5 7v11c0 2.58 3.095 4.5 6.5 4.5h15c3.407 0 6.5-1.92 6.5-4.5V7c0-2.583-3.093-4.5-6.5-4.5H9zM0 6.98C0 3.125 4.126 0 9.213 0h14.574C28.877 0 33 3.124 33 6.98v11.04c0 3.856-4.123 6.98-9.213 6.98H9.213C4.126 25 0 21.876 0 18.02V6.98z"/></symbol></svg>