<?xml version="1.0" encoding="utf-8"?><svg xmlns="http://www.w3.org/2000/svg" xmlns:xlink="http://www.w3.org/1999/xlink"><symbol viewBox="0 0 32 19" id="arrow-back" xmlns="http://www.w3.org/2000/svg"><path fill-rule="evenodd" clip-rule="evenodd" d="M2.046 9.199l7.05 7.69-1.441 1.322L0 9.86V8.539L7.655.187l1.44 1.321L2.047 9.2z"/><path fill-rule="evenodd" clip-rule="evenodd" d="M31.999 10.177H.865V8.222H32v1.955z"/></symbol><symbol viewBox="0 0 16 28" id="arrow-left" xmlns="http://www.w3.org/2000/svg"><path fill-rule="evenodd" clip-rule="evenodd" d="M1 13L13 1l2 2L4.2 14l11 11-2.2 2L1 15v-2z"/></symbol><symbol viewBox="0 0 32 19" id="arrow-next" xmlns="http://www.w3.org/2000/svg"><path fill-rule="evenodd" clip-rule="evenodd" d="M29.952 9.199l-7.05-7.69L24.343.186 32 8.54v1.32l-7.655 8.352-1.442-1.321 7.05-7.691z"/><path fill-rule="evenodd" clip-rule="evenodd" d="M0 8.222h31.133v1.955H0V8.222z"/></symbol><symbol viewBox="0 0 16 28" id="arrow-right" xmlns="http://www.w3.org/2000/svg"><path fill-rule="evenodd" clip-rule="evenodd" d="M15 15L3 27l-2-2 10.9-11L.9 3l2.2-2 12 12v2z"/></symbol><symbol viewBox="0 0 5 22" id="filter-active" xmlns="http://www.w3.org/2000/svg"><path fill-rule="evenodd" clip-rule="evenodd" d="M.258 20.889l3-20 1.484.222-3 20-1.484-.222z"/></symbol><symbol viewBox="0 0 6 16" id="lang-left" xmlns="http://www.w3.org/2000/svg"><path fill-rule="evenodd" clip-rule="evenodd" d="M.566 7.752l4-7 .868.496L1.576 8l3.858 6.752-.868.496-4-7v-.496z"/></symbol><symbol viewBox="0 0 6 16" id="lang-right" xmlns="http://www.w3.org/2000/svg"><path fill-rule="evenodd" clip-rule="evenodd" d="M1.434.752l4 7v.496l-4 7-.868-.496L4.424 8 .566 1.248l.868-.496z"/></symbol><symbol viewBox="0 0 254 104" id="logotip" xmlns="http://www.w3.org/2000/svg"><path fill-rule="evenodd" clip-rule="evenodd" d="M0 65.112v-3.857c0-3.859.171-11.66 18.687-15.603l4.844-.985c3.643-.686 4.115-1.2 4.115-2.058v-.043c0-.985-.857-1.8-5.83-1.8-6.6 0-6.643 2.83-6.772 3.86H.471v-.259c0-4.415 1.672-11.744 19.931-11.744h1.929c17.273 0 20.445 4.543 20.445 9.986v.258c0 5.658-4.286 7.887-16.887 9.73-1.672.213-3.43.557-4.801.771-7.158 1.157-8.658 2.23-8.658 3.215h17.916v-3.386h12.859v11.915H0zm65.025.601c-18.559 0-20.402-7.072-20.402-11.188v-.385h16.545c.128 1.5.771 3.9 6.386 3.9h.171c5.144 0 6.173-1.243 6.173-2.571v-.086c0-1.33-.6-2.358-6.644-2.572l-6.344-.171c-12.815-.343-15.773-4.886-15.773-9.902v-.385c0-5.615 4.243-9.687 19.374-9.687h4.715c16.544 0 20.36 4.758 20.36 10.029v.3h-16.29c-.128-1.157-.728-2.957-6.129-2.957h-.214c-4.972 0-5.658.858-5.658 2.015v.043c0 1.242 1.114 2.056 6.515 2.185l6.087.129c12.301.343 16.844 3.215 16.844 9.73v.6c0 5.53-3.386 10.973-20.874 10.973h-4.843zm27.693-32.49h13.844v13.03c.986-.985 4.801-4.715 12.344-4.715h.258c9.258 0 11.358 5.573 11.358 8.53v15.045h-13.844v-10.63c0-2.614-1.158-4.801-4.929-4.801-3.601 0-5.187 2.228-5.187 4.887v10.544H92.718v-31.89zm61.553 20.917l-9.13 1.415c-2.443.385-3.472.814-3.472 2.143v.043c0 1.242.943 2.614 4.201 2.614 5.101 0 8.401-2.743 8.401-5.486v-.73zm-10.416 11.4h-.557c-7.758 0-10.715-3.6-10.715-7.543v-.3c0-4.243 2.786-6.257 9.687-6.9l10.543-.986c1.072-.13 1.458-.472 1.458-1.2 0-.857-.386-1.886-6.001-1.886h-.214c-5.701 0-5.915 1.8-6.044 2.572h-8.872v-.086c0-3.043.9-7.8 13.758-7.8h2.358c13.373 0 14.23 4.114 14.23 7.457v8.83c0 .685.215 1.157 1.201 1.157h1.242v6.258h-7.758c-1.843 0-3.3-.986-3.643-3.172-.986 1.243-3.901 3.6-10.673 3.6zm33.907-.428h-9.558v-23.06h9.472v4.073c.815-1.287 3.601-4.587 9.344-4.587h.471c6.687 0 9.387 4.33 9.387 10.287v1.33h-9.215c0-2.959-1.286-5.53-4.886-5.53h-.043c-3.215 0-4.972 2.614-4.972 5.572v11.915zm31.506-11.53c0 2.872 2.7 6.001 8.529 6.001h.215c6.172 0 7.886-3.214 7.886-6.001v-.171c0-2.958-1.714-5.958-7.886-5.958h-.215c-5.957 0-8.529 3-8.529 5.958v.171zm0-11.529v3.3c1.029-.9 4.715-3.857 11.701-3.857h.772c10.458 0 13.93 5.229 13.93 11.572v.815c0 6.043-3.6 11.787-14.23 11.787h-.686c-6.858 0-10.716-2.958-11.487-3.815V73.17h-9.558V42.053h9.558zm33.333-6.011l-7.051-6.977-3.865 3.907 8.984 8.889h3.865l8.984-8.89-3.865-3.906-7.052 6.977zm1.351 28.12h-.367c-.48 0-1.204-.087-1.518-1.592l-.157-.76c-.083-.44-.17-.48-.271-.48-.126 0-.244.101-.244.816 0 .817.296.886.458.9v1.06h-.035c-.371 0-1.17-.157-1.17-1.838v-.174c0-1.528.485-1.837 1-1.837h.009c.488 0 .798.187.973 1.253l.148.89c.14.768.314.855.406.855V61.2h-.419v-1h1.187v3.962zm-1.667-7.717c-.367 0-.847.227-.847 1.222 0 1.012.48 1.221.847 1.221h.052c.367 0 .878-.23.878-1.22 0-.992-.498-1.223-.869-1.223h-.061zm.1-1.064c.567 0 1.624.261 1.624 2.19v.192c0 1.92-1.052 2.191-1.624 2.191h-.131c-.575 0-1.606-.27-1.606-2.19v-.193c0-1.925 1.031-2.19 1.606-2.19h.131zm-.445-.208h-.611c-.035-.56-.284-.82-.624-.97v-.793h3.247v1.008h-2.012v.755zm.345-5.657c-.367 0-.847.228-.847 1.223 0 1.01.48 1.22.847 1.22h.052c.367 0 .878-.23.878-1.22 0-.991-.498-1.223-.869-1.223h-.061zm.1-1.064c.567 0 1.624.26 1.624 2.19v.192c0 1.92-1.052 2.192-1.624 2.192h-.131c-.575 0-1.606-.272-1.606-2.192v-.191c0-1.926 1.031-2.191 1.606-2.191h.131z"/><path fill-rule="evenodd" clip-rule="evenodd" d="M20.871 39.991L6.461 38.11l2.891-5.015 8.97 1.626-5.93-6.902 2.915-5.058 8.995 1.583-5.955-6.859 2.592-4.496 9.04 11.2-2.94 5.101-9.342-1.58 6.052 7.288-2.878 4.994zm3.846-35.245l5-2.445 3.246 6.636c.275-.801 1.235-3.438 4.822-5.193l.158-.076c4.17-2.041 7.036-.497 8.176 1.834l3.73 7.622-5.045 2.468-2.917-5.963c-.91-1.862-2.479-2.511-4.698-1.425-2.243 1.097-3.064 3.11-2.098 5.083l2.786 5.694-5 2.447-8.16-16.682zm26.562 9.393l3.144.02c.523.003.649-.146.65-.42.002-.276-.22-.651-.614-1.426L48.124 0l5.987.036 4.259 9.107L62.617.089l5.588.034-7.123 14.276c-1.288 2.51-2.543 3.776-4.963 3.76l-4.864-.03.024-3.99zm38.741-.112c1.851.906 3.384 1.347 4.184.488.732-.784.786-1.758-1.204-3.61-1.716-1.6-2.525-1.502-3.069-.917-.63.674-.412 1.832.09 4.04zm-2.535 8.246l-2.158-8.664c-1.057-.439-2.209-.557-3.077.373l-.05.056c-.953 1.022-.899 3.086 1.986 5.774 1.168 1.09 2.273 1.914 3.3 2.461zm4.691 9.863c-2.045-1.905-2.93-3.515-3.506-5.279-2.089-.685-4.396-2.016-6.824-4.279-6.863-6.398-6.493-9.906-4.587-11.95l.187-.202c1.684-1.807 4.114-1.52 7.261.628-.352-1.964.013-3.638 1.034-4.733l.136-.146c1.447-1.55 3.882-2.59 8.847 2.038l.967.901c4.965 4.628 3.82 7.175 2.611 8.472l-.085.09c-1.327 1.423-3.522 1.767-7.549-.794l1.374 5.956c1.89-.492 3.415-1.834 4.197-2.674l3.998 3.726c-1.416 1.41-3.709 2.991-6.696 3.378.58.951 1.353 1.843 2.54 2.948l-3.905 1.92zm3.344 11.022l13.577-5.173-.168 5.786-8.667 2.82 8.491 3.264-.169 5.835-8.668 2.868 8.492 3.217-.15 5.187-13.266-5.575.171-5.885 8.972-3.035-8.782-3.549.167-5.76zM90.859 80.66l.102.072c1.356.975 3.382 1.108 5.564-1.93l.015-.02c2.214-3.08 1.447-4.923.07-5.913l-.103-.072c-1.276-.918-3.428-1.174-5.64 1.907-2.214 3.081-1.285 5.038-.008 5.955zm-2.421-8.777c4.543-6.323 8.754-5.6 11.269-3.795l.363.263c2.513 1.805 4.435 5.46-.107 11.783l-1.033 1.438c-4.778 6.648-8.647 5.62-11.119 3.842l-.365-.262c-2.513-1.805-4.861-5.123-.028-11.85l1.02-1.419zm-9.124 11.039l9.917 10.627-5.423 2.027-5.884-6.965.18 9.098-5.47 2.046-5.93-6.948.227 9.082-4.863 1.817.16-14.393 5.515-2.064 6.199 7.167-.027-9.474 5.4-2.02z" fill="#AFDE0E"/></symbol><symbol viewBox="0 0 16 9" id="marker" xmlns="http://www.w3.org/2000/svg"><path fill-rule="evenodd" clip-rule="evenodd" d="M7.47 8.53l-7-7L1.53.47 8 6.94 14.47.47l1.06 1.06-7 7H7.47z"/></symbol><symbol viewBox="0 0 23 24" id="modal-close" xmlns="http://www.w3.org/2000/svg"><path fill-rule="evenodd" clip-rule="evenodd" d="M11 12L0 1 .707.293l11 11L22 1l.707.707L12.414 12l10.293 10.293L22 23 11.707 12.707l-11 11L0 23l11-11z"/></symbol><symbol viewBox="0 0 32 32" id="soc-be" xmlns="http://www.w3.org/2000/svg"><path fill-rule="evenodd" clip-rule="evenodd" d="M9.674 4A5.675 5.675 0 0 0 4 9.676v12.65A5.674 5.674 0 0 0 9.674 28h12.65A5.674 5.674 0 0 0 28 22.325V9.676A5.675 5.675 0 0 0 22.324 4H9.674zM2 9.676A7.675 7.675 0 0 1 9.674 2h12.65A7.675 7.675 0 0 1 30 9.676v12.65A7.675 7.675 0 0 1 22.324 30H9.674A7.674 7.674 0 0 1 2 22.325V9.676z"/><path fill-rule="evenodd" clip-rule="evenodd" d="M12.294 10.336h-4.3v11.298h4.367c.7 0 1.303-.06 1.804-.187.497-.127.923-.317 1.27-.577.352-.264.64-.633.866-1.095.23-.47.346-.978.346-1.52 0-.68-.191-1.278-.578-1.787a2.885 2.885 0 0 0-1.126-.88 2.724 2.724 0 0 0 1.18-2.238c0-.546-.156-1.066-.46-1.557a2.8 2.8 0 0 0-1.283-1.107c-.54-.237-1.242-.35-2.086-.35zm-2.371 4.539v-2.763h1.908c.774 0 1.288.05 1.568.138.265.084.46.234.6.455.144.23.219.498.219.814 0 .336-.082.595-.228.794-.146.198-.369.35-.691.447h-.002c-.236.072-.659.115-1.289.115H9.923zm0 4.988V16.65h2.246c.68 0 1.174.06 1.502.168.318.104.558.281.731.53.174.251.265.55.265.908 0 .308-.063.568-.183.79-.125.23-.278.395-.457.508a2.106 2.106 0 0 1-.737.26h-.001c-.162.03-.466.049-.927.049h-2.44zm11.481-6.726c-1.143 0-2.089.387-2.819 1.17-.733.786-1.083 1.876-1.083 3.234 0 1.316.348 2.373 1.074 3.138.727.762 1.703 1.134 2.904 1.134.948 0 1.751-.232 2.39-.714.634-.48 1.061-1.152 1.29-1.998l.075-.278-1.854-.227-.068.188c-.19.53-.44.89-.733 1.106-.294.22-.654.334-1.094.334-.587 0-1.066-.203-1.455-.608-.34-.356-.56-.865-.637-1.55h5.803l.008-.242c.005-.16.007-.28.007-.362 0-1.334-.343-2.403-1.061-3.176-.715-.77-1.637-1.15-2.747-1.15zm-1.346 2.129c.367-.36.816-.54 1.36-.54.6 0 1.077.224 1.451.677.194.233.338.582.412 1.07h-3.808c.076-.504.275-.901.585-1.207z"/><path d="M24.238 10.75h-5.473l-.019 1.5h5.506l-.014-1.5z"/></symbol><symbol viewBox="0 0 32 32" id="soc-fb" xmlns="http://www.w3.org/2000/svg"><path fill-rule="evenodd" clip-rule="evenodd" d="M17.718 14.49v-2.175c0-.945.245-1.452 1.958-1.452H21.8V7.235h-3.266c-4.08 0-5.712 2.394-5.712 5.08v2.175H9.558v3.627h3.263V29h4.897V18.117h3.59l.49-3.627h-4.08z"/><path fill-rule="evenodd" clip-rule="evenodd" d="M9.686 4C6.543 4 4 6.539 4 9.664v12.674C4 25.46 6.543 28 9.686 28h12.627C25.456 28 28 25.46 28 22.338V9.664C28 6.539 25.457 4 22.312 4H9.687zM2 9.664C2 5.428 5.445 2 9.686 2h12.627C26.555 2 30 5.428 30 9.664v12.674C30 26.572 26.555 30 22.312 30H9.687C5.446 30 2 26.572 2 22.338V9.664z"/></symbol><symbol viewBox="0 0 32 32" id="soc-inst" xmlns="http://www.w3.org/2000/svg"><path fill-rule="evenodd" clip-rule="evenodd" d="M9.674 4A5.675 5.675 0 0 0 4 9.676v12.65A5.674 5.674 0 0 0 9.674 28h12.65A5.674 5.674 0 0 0 28 22.325V9.676A5.675 5.675 0 0 0 22.324 4H9.674zM2 9.676A7.675 7.675 0 0 1 9.674 2h12.65A7.675 7.675 0 0 1 30 9.676v12.65A7.675 7.675 0 0 1 22.324 30H9.674A7.674 7.674 0 0 1 2 22.325V9.676z"/><path fill-rule="evenodd" clip-rule="evenodd" d="M16 10.61a5.39 5.39 0 1 0 .002 10.78A5.39 5.39 0 0 0 16 10.61zM8.61 16a7.39 7.39 0 1 1 14.781 0 7.39 7.39 0 0 1-14.78 0zm16.203-8.152a1.542 1.542 0 1 1-3.083 0 1.542 1.542 0 1 1 3.083 0z"/></symbol><symbol viewBox="0 0 32 32" id="soc-v" xmlns="http://www.w3.org/2000/svg"><path fill-rule="evenodd" clip-rule="evenodd" d="M9.675 4A5.675 5.675 0 0 0 4 9.676v12.648A5.673 5.673 0 0 0 9.675 28h12.65A5.674 5.674 0 0 0 28 22.324V9.676A5.676 5.676 0 0 0 22.325 4H9.675zM2 9.676A7.675 7.675 0 0 1 9.675 2h12.65A7.676 7.676 0 0 1 30 9.676v12.648A7.674 7.674 0 0 1 22.325 30H9.675A7.673 7.673 0 0 1 2 22.324V9.676z"/><path fill-rule="evenodd" clip-rule="evenodd" d="M22.814 14.707c-1.629 3.482-5.563 8.22-8.05 8.22-2.451 0-2.805-5.226-4.146-8.704-.656-1.71-1.082-1.317-2.317-.454l-.753-.97c1.8-1.583 3.604-3.42 4.712-3.524 1.244-.122 2.013.73 2.3 2.557.379 2.398.909 6.12 1.833 6.12.72 0 2.498-2.953 2.589-4.009.163-1.545-1.136-1.592-2.264-1.11 1.783-5.841 9.205-4.764 6.096 1.874z"/></symbol><symbol viewBox="0 0 32 32" id="soc-yb" xmlns="http://www.w3.org/2000/svg"><path fill-rule="evenodd" clip-rule="evenodd" d="M9.674 4A5.675 5.675 0 0 0 4 9.676v12.65A5.674 5.674 0 0 0 9.674 28h12.65A5.674 5.674 0 0 0 28 22.325V9.676A5.675 5.675 0 0 0 22.324 4H9.674zM2 9.676A7.675 7.675 0 0 1 9.674 2h12.65A7.675 7.675 0 0 1 30 9.676v12.65A7.675 7.675 0 0 1 22.324 30H9.674A7.674 7.674 0 0 1 2 22.325V9.676z"/><path d="M12 22V10l10 6-10 6z"/></symbol></svg>