<svg width="254" height="104" viewBox="0 0 254 104" xmlns="http://www.w3.org/2000/svg">
<path fill-rule="evenodd" clip-rule="evenodd" d="M0 65.1122V61.2552C0 57.3962 0.171 49.5952 18.687 45.6522L23.531 44.6672C27.174 43.9812 27.646 43.4662 27.646 42.6092V42.5662C27.646 41.5812 26.789 40.7662 21.816 40.7662C15.216 40.7662 15.173 43.5952 15.044 44.6252H0.471V44.3672C0.471 39.9522 2.143 32.6232 20.402 32.6232H22.331C39.604 32.6232 42.776 37.1662 42.776 42.6092V42.8672C42.776 48.5252 38.49 50.7542 25.889 52.5962C24.217 52.8102 22.459 53.1542 21.088 53.3682C13.93 54.5252 12.43 55.5972 12.43 56.5832H30.346V53.1972H43.205V65.1122H0Z"/> <path fill-rule="evenodd" clip-rule="evenodd" d="M65.0254 65.7128C46.4664 65.7128 44.6234 58.6408 44.6234 54.5248V54.1398H61.1684C61.2964 55.6398 61.9394 58.0398 67.5544 58.0398H67.7254C72.8694 58.0398 73.8984 56.7968 73.8984 55.4688V55.3828C73.8984 54.0538 73.2974 53.0248 67.2544 52.8108L60.9104 52.6398C48.0954 52.2968 45.1374 47.7538 45.1374 42.7378V42.3528C45.1374 36.7378 49.3804 32.6658 64.5114 32.6658H69.2264C85.7704 32.6658 89.5854 37.4238 89.5854 42.6948V42.9958H73.2974C73.1694 41.8378 72.5694 40.0378 67.1684 40.0378H66.9544C61.9824 40.0378 61.2964 40.8958 61.2964 42.0528V42.0958C61.2964 43.3378 62.4104 44.1518 67.8114 44.2808L73.8984 44.4098C86.1994 44.7528 90.7424 47.6248 90.7424 54.1398V54.7398C90.7424 60.2698 87.3564 65.7128 69.8684 65.7128H65.0254Z"/>
<path fill-rule="evenodd" clip-rule="evenodd" d="M92.7178 33.2226H106.562V46.2526C107.548 45.2676 111.363 41.5376 118.906 41.5376H119.164C128.422 41.5376 130.522 47.1106 130.522 50.0686V65.1126H116.678V54.4826C116.678 51.8686 115.52 49.6816 111.749 49.6816C108.148 49.6816 106.562 51.9096 106.562 54.5686V65.1126H92.7178V33.2226Z"/>
<path fill-rule="evenodd" clip-rule="evenodd" d="M154.271 54.1396L145.141 55.5546C142.698 55.9396 141.669 56.3686 141.669 57.6976V57.7406C141.669 58.9826 142.612 60.3546 145.87 60.3546C150.971 60.3546 154.271 57.6116 154.271 54.8686V54.1396ZM143.855 65.5406H143.298C135.54 65.5406 132.583 61.9406 132.583 57.9966V57.6976C132.583 53.4536 135.369 51.4396 142.27 50.7966L152.813 49.8106C153.885 49.6816 154.271 49.3386 154.271 48.6106C154.271 47.7536 153.885 46.7246 148.27 46.7246H148.056C142.355 46.7246 142.141 48.5256 142.012 49.2966H133.14V49.2106C133.14 46.1676 134.04 41.4106 146.898 41.4106H149.256C162.629 41.4106 163.486 45.5246 163.486 48.8676V57.6976C163.486 58.3826 163.701 58.8546 164.687 58.8546H165.929V65.1126H158.171C156.328 65.1126 154.871 64.1266 154.528 61.9406C153.542 63.1836 150.627 65.5406 143.855 65.5406Z"/>
<path fill-rule="evenodd" clip-rule="evenodd" d="M177.762 65.1122H168.204V42.0522H177.676V46.1252C178.491 44.8382 181.277 41.5382 187.02 41.5382H187.491C194.178 41.5382 196.878 45.8672 196.878 51.8252V53.1542H187.663C187.663 50.1962 186.377 47.6252 182.777 47.6252H182.734C179.519 47.6252 177.762 50.2392 177.762 53.1972V65.1122Z"/>
<path fill-rule="evenodd" clip-rule="evenodd" d="M209.268 53.582C209.268 56.454 211.968 59.583 217.797 59.583H218.012C224.184 59.583 225.898 56.369 225.898 53.582V53.411C225.898 50.453 224.184 47.453 218.012 47.453H217.797C211.84 47.453 209.268 50.453 209.268 53.411V53.582ZM209.268 42.053V45.353C210.297 44.453 213.983 41.496 220.969 41.496H221.741C232.199 41.496 235.671 46.725 235.671 53.068V53.883C235.671 59.926 232.071 65.67 221.441 65.67H220.755C213.897 65.67 210.039 62.712 209.268 61.855V73.17H199.71V42.053H209.268Z"/>
<path fill-rule="evenodd" clip-rule="evenodd" d="M242.601 36.0424L235.55 29.0654L231.685 32.9716L240.669 41.8606H244.534L253.518 32.9716L249.653 29.0654L242.601 36.0424Z"/>
<path fill-rule="evenodd" clip-rule="evenodd" d="M243.952 64.1621H243.585C243.105 64.1621 242.381 64.0751 242.067 62.5701L241.91 61.8101C241.827 61.3691 241.74 61.3301 241.639 61.3301C241.513 61.3301 241.395 61.4311 241.395 62.1461C241.395 62.9631 241.691 63.0321 241.853 63.0451V64.1051H241.818C241.447 64.1051 240.648 63.9491 240.648 62.2681V62.0941C240.648 60.5661 241.133 60.2571 241.648 60.2571H241.657C242.145 60.2571 242.455 60.4441 242.63 61.5101L242.778 62.3991C242.918 63.1681 243.092 63.2551 243.184 63.2551V61.1991H242.765V60.2001H243.952V64.1621Z"/>
<path fill-rule="evenodd" clip-rule="evenodd" d="M242.285 56.4453C241.918 56.4453 241.438 56.6723 241.438 57.6673C241.438 58.6793 241.918 58.8883 242.285 58.8883H242.337C242.704 58.8883 243.215 58.6583 243.215 57.6673C243.215 56.6763 242.717 56.4453 242.346 56.4453H242.285ZM242.385 55.3813C242.952 55.3813 244.009 55.6423 244.009 57.5713V57.7633C244.009 59.6833 242.957 59.9543 242.385 59.9543H242.254C241.679 59.9543 240.648 59.6833 240.648 57.7633V57.5713C240.648 55.6463 241.679 55.3813 242.254 55.3813H242.385Z"/>
<path fill-rule="evenodd" clip-rule="evenodd" d="M241.94 55.1728H241.329C241.294 54.6138 241.045 54.3528 240.705 54.2038V53.4098H243.952V54.4178H241.94V55.1728Z"/>
<path fill-rule="evenodd" clip-rule="evenodd" d="M242.285 49.5156C241.918 49.5156 241.438 49.7436 241.438 50.7386C241.438 51.7496 241.918 51.9596 242.285 51.9596H242.337C242.704 51.9596 243.215 51.7286 243.215 50.7386C243.215 49.7476 242.717 49.5156 242.346 49.5156H242.285ZM242.385 48.4516C242.952 48.4516 244.009 48.7126 244.009 50.6426V50.8336C244.009 52.7536 242.957 53.0256 242.385 53.0256H242.254C241.679 53.0256 240.648 52.7536 240.648 50.8336V50.6426C240.648 48.7166 241.679 48.4516 242.254 48.4516H242.385Z"/>
<path fill-rule="evenodd" clip-rule="evenodd" d="M20.8712 39.9912L6.46118 38.1092L9.35218 33.0942L18.3222 34.7202L12.3922 27.8182L15.3072 22.7602L24.3022 24.3432L18.3472 17.4842L20.9392 12.9882L29.9792 24.1872L27.0382 29.2892L17.6972 27.7082L23.7492 34.9972L20.8712 39.9912Z" fill="#AFDE0E"/>
<path fill-rule="evenodd" clip-rule="evenodd" d="M24.7173 4.746L29.7173 2.301L32.9633 8.937C33.2383 8.136 34.1983 5.499 37.7853 3.744L37.9433 3.668C42.1133 1.627 44.9793 3.171 46.1193 5.502L49.8483 13.124L44.8043 15.592L41.8873 9.629C40.9763 7.767 39.4083 7.118 37.1893 8.204C34.9463 9.301 34.1253 11.314 35.0913 13.287L37.8773 18.981L32.8773 21.428L24.7173 4.746Z" fill="#AFDE0E"/>
<path fill-rule="evenodd" clip-rule="evenodd" d="M51.2789 14.1386L54.4229 14.1586C54.9459 14.1616 55.0719 14.0126 55.0739 13.7386C55.0749 13.4626 54.8529 13.0876 54.4589 12.3126L48.1239 -0.000400543L54.1109 0.0355995L58.3699 9.1426L62.6169 0.0885995L68.2049 0.122599L61.0819 14.3986C59.7939 16.9096 58.5389 18.1746 56.1189 18.1596L51.2549 18.1296L51.2789 14.1386Z" fill="#AFDE0E"/>
<path fill-rule="evenodd" clip-rule="evenodd" d="M90.0201 14.0273C91.8711 14.9333 93.4041 15.3743 94.2041 14.5153C94.9361 13.7313 94.9901 12.7573 93.0001 10.9043C91.2841 9.3043 90.4751 9.4033 89.9311 9.9883C89.3011 10.6623 89.5191 11.8203 90.0201 14.0273ZM87.4851 22.2733L85.3271 13.6093C84.2701 13.1703 83.1181 13.0523 82.2501 13.9823L82.1991 14.0383C81.2471 15.0603 81.3011 17.1243 84.1861 19.8123C85.3541 20.9013 86.4591 21.7263 87.4851 22.2733ZM92.1761 32.1363C90.1311 30.2313 89.2451 28.6213 88.6701 26.8573C86.5811 26.1723 84.2741 24.8413 81.8461 22.5783C74.9831 16.1803 75.3531 12.6723 77.2591 10.6273L77.4461 10.4263C79.1301 8.6193 81.5601 8.9053 84.7071 11.0543C84.3551 9.0903 84.7201 7.4163 85.7411 6.3213L85.8771 6.1753C87.3241 4.6243 89.7591 3.5853 94.7241 8.2133L95.6911 9.1143C100.656 13.7423 99.5101 16.2893 98.3021 17.5863L98.2171 17.6753C96.8901 19.0993 94.6951 19.4433 90.6681 16.8823L92.0421 22.8383C93.9321 22.3463 95.4571 21.0043 96.2391 20.1643L100.237 23.8903C98.8211 25.3003 96.5281 26.8813 93.5411 27.2683C94.1211 28.2193 94.8941 29.1113 96.0811 30.2163L92.1761 32.1363Z" fill="#AFDE0E"/>
<path fill-rule="evenodd" clip-rule="evenodd" d="M95.52 43.1581L109.097 37.9851L108.929 43.7711L100.262 46.5901L108.753 49.8551L108.584 55.6901L99.916 58.5581L108.408 61.7751L108.258 66.9621L94.992 61.3871L95.163 55.5021L104.135 52.4671L95.353 48.9181L95.52 43.1581Z" fill="#AFDE0E"/>
<path fill-rule="evenodd" clip-rule="evenodd" d="M90.8585 80.6591L90.9605 80.7321C92.3175 81.7071 94.3425 81.8401 96.5255 78.8011L96.5405 78.7811C98.7545 75.7011 97.9875 73.8591 96.6095 72.8691L96.5075 72.7971C95.2315 71.8791 93.0795 71.6231 90.8665 74.7041C88.6535 77.7851 89.5815 79.7421 90.8585 80.6591ZM88.4375 71.8831C92.9805 65.5601 97.1925 66.2831 99.7065 68.0881L100.07 68.3511C102.583 70.1561 104.505 73.8101 99.9625 80.1341L98.9295 81.5721C94.1525 88.2201 90.2835 87.1911 87.8115 85.4141L87.4465 85.1521C84.9335 83.3471 82.5845 80.0291 87.4185 73.3021L88.4375 71.8831Z" fill="#AFDE0E"/>
<path fill-rule="evenodd" clip-rule="evenodd" d="M79.3145 82.9218L89.2305 93.5488L83.8075 95.5758L77.9245 88.6108L78.1035 97.7088L72.6335 99.7548L66.7045 92.8068L66.9305 101.889L62.0675 103.706L62.2275 89.3128L67.7435 87.2488L73.9415 94.4158L73.9145 84.9418L79.3145 82.9218Z" fill="#AFDE0E"/>
</svg>
