<svg width="32" height="32" viewBox="0 0 32 32" xmlns="http://www.w3.org/2000/svg"><path fill-rule="evenodd" clip-rule="evenodd" d="M9.67411 4C6.54119 4 4 6.53945 4 9.67639V22.3254C4 25.4604 6.54101 28 9.67411 28H22.3241C25.4592 28 28 25.4602 28 22.3254V9.67639C28 6.53963 25.459 4 22.3241 4H9.67411ZM2 9.67639C2 5.43502 5.43649 2 9.67411 2H22.3241C26.5633 2 30 5.43484 30 9.67639V22.3254C30 26.5653 26.5632 30 22.3241 30H9.67411C5.43667 30 2 26.5652 2 22.3254V9.67639Z"/><path fill-rule="evenodd" clip-rule="evenodd" d="M15.9997 10.6097C13.0246 10.6097 10.6104 13.0222 10.6104 16.0013C10.6104 18.9765 13.0242 21.3893 15.9997 21.3893C18.9769 21.3893 21.3891 18.9766 21.3891 16.0013C21.3891 13.022 18.9765 10.6097 15.9997 10.6097ZM8.61035 16.0013C8.61035 11.9177 11.9199 8.60968 15.9997 8.60968C20.0816 8.60968 23.3891 11.9179 23.3891 16.0013C23.3891 20.0814 20.0812 23.3893 15.9997 23.3893C11.9203 23.3893 8.61035 20.0816 8.61035 16.0013Z"/><path fill-rule="evenodd" clip-rule="evenodd" d="M24.8126 7.84837C24.8126 8.70082 24.1217 9.39186 23.2693 9.39186C22.4187 9.39186 21.7295 8.70082 21.7295 7.84837C21.7295 6.99591 22.4187 6.30487 23.2693 6.30487C24.1217 6.30487 24.8126 6.99591 24.8126 7.84837Z"/></svg>