<svg width="27" height="27" viewBox="0 0 27 27" xmlns="http://www.w3.org/2000/svg">
<path fill-rule="evenodd" clip-rule="evenodd" d="M14.937 12.136V10.2176C14.937 9.384 15.1514 8.936 16.6586 8.936H18.5242V5.736H15.6538C12.0682 5.736 10.633 7.848 10.633 10.2176V12.136H7.76262V15.336H10.633V24.936H14.937V15.336H18.0938L18.5242 12.136H14.937Z"/>
<path fill-rule="evenodd" clip-rule="evenodd" d="M7.87686 3.164C5.27513 3.164 3.16406 5.27465 3.16406 7.8784V19.0592C3.16406 21.6611 5.27492 23.772 7.87686 23.772H18.9761C21.5798 23.772 23.6905 21.6609 23.6905 19.0592V7.8784C23.6905 5.27486 21.5796 3.164 18.9761 3.164H7.87686ZM0.83606 7.8784C0.83606 3.98935 3.98899 0.835999 7.87686 0.835999H18.9761C22.8653 0.835999 26.0185 3.98914 26.0185 7.8784V19.0592C26.0185 22.9471 22.8651 26.1 18.9761 26.1H7.87686C3.9892 26.1 0.83606 22.9469 0.83606 19.0592V7.8784Z"/>
</svg>
