<svg width="32" height="32" viewBox="0 0 32 32" xmlns="http://www.w3.org/2000/svg"><path fill-rule="evenodd" clip-rule="evenodd" d="M17.7177 14.49V12.3153C17.7177 11.3704 17.9634 10.8625 19.6762 10.8625H21.7986V7.23511H18.5331C14.4522 7.23511 12.8213 9.62922 12.8213 12.3153V14.49H9.55762V18.1174H12.8213V28.9998H17.7177V18.1174H21.3089L21.7986 14.49H17.7177Z"/><path fill-rule="evenodd" clip-rule="evenodd" d="M9.68566 3.99994C6.54335 3.99994 4 6.53899 4 9.66355V22.3378C4 25.4604 6.54317 27.9996 9.68566 27.9996H22.3125C25.457 27.9996 28 25.4602 28 22.3378V9.66355C28 6.53916 25.4568 3.99994 22.3125 3.99994H9.68566ZM2 9.66355C2 5.42803 5.44517 1.99994 9.68566 1.99994H22.3125C26.5546 1.99994 30 5.42786 30 9.66355V22.3378C30 26.5719 26.5545 29.9996 22.3125 29.9996H9.68566C5.44535 29.9996 2 26.5717 2 22.3378V9.66355Z"/></svg>