<svg width="33" height="25" viewBox="0 0 33 25"  xmlns="http://www.w3.org/2000/svg">
<path fill-rule="evenodd" clip-rule="evenodd" d="M11 7.15572L12.8577 6L23.219 11.1044L23.2204 13.4151L12.859 18.5343L11 17.3792V7.15572ZM13.5767 9.2266V15.3057L19.7377 12.2617L13.5767 9.2266Z" />
<path fill-rule="evenodd" clip-rule="evenodd" d="M9 2.5C5.59535 2.5 2.5 4.41755 2.5 7V12.5V18C2.5 20.5807 5.59508 22.5 9 22.5H24C27.4067 22.5 30.5 20.5809 30.5 18V7C30.5 4.41735 27.4065 2.5 24 2.5H9ZM0 6.98094C0 3.12383 4.12554 0 9.21275 0H23.7872C28.8768 0 33 3.12403 33 6.98094V18.0206C33 21.8762 28.8765 25 23.7872 25H9.21275C4.12581 25 0 21.8764 0 18.0206V6.98094Z"/>
</svg>
