<svg width="32" height="32" viewBox="0 0 32 32" xmlns="http://www.w3.org/2000/svg">
<path fill-rule="evenodd" clip-rule="evenodd" d="M9.67411 4C6.54119 4 4 6.53945 4 9.67639V22.3254C4 25.4604 6.54101 28 9.67411 28H22.3241C25.4592 28 28 25.4602 28 22.3254V9.67639C28 6.53963 25.459 4 22.3241 4H9.67411ZM2 9.67639C2 5.43502 5.43649 2 9.67411 2H22.3241C26.5633 2 30 5.43484 30 9.67639V22.3254C30 26.5653 26.5632 30 22.3241 30H9.67411C5.43667 30 2 26.5652 2 22.3254V9.67639Z"/><path d="M12 22V10L22 16L12 22Z"/></svg>