<svg width="27" height="27" viewBox="0 0 27 27" xmlns="http://www.w3.org/2000/svg">
<path fill-rule="evenodd" clip-rule="evenodd" d="M7.88802 3.1664C5.281 3.1664 3.16642 5.27939 3.16642 7.8896V19.048C3.16642 21.6564 5.2808 23.7696 7.88802 23.7696H19.048C21.6566 23.7696 23.7696 21.6566 23.7696 19.048V7.8896C23.7696 5.27918 21.6564 3.1664 19.048 3.1664H7.88802ZM0.833618 7.8896C0.833618 3.99102 3.99263 0.833603 7.88802 0.833603H19.048C22.9452 0.833603 26.1024 3.99122 26.1024 7.8896V19.048C26.1024 22.945 22.945 26.1024 19.048 26.1024H7.88802C3.99284 26.1024 0.833618 22.9452 0.833618 19.048V7.8896Z"/>
<path fill-rule="evenodd" clip-rule="evenodd" d="M12.3816 12.833C12.6631 12.6914 12.876 12.5336 13.0218 12.3632C13.2813 12.0562 13.4093 11.6492 13.4093 11.1446C13.4093 10.6536 13.2813 10.2338 13.0252 9.88193C12.5978 9.30868 11.8745 9.01527 10.8518 9.00001H6.80003V17.2705H10.5779C11.0036 17.2705 11.3979 17.2341 11.7625 17.1595C12.1272 17.084 12.4426 16.9458 12.7097 16.7439C12.9472 16.5684 13.1456 16.3505 13.3033 16.0935C13.5527 15.7051 13.6773 15.265 13.6773 14.7749C13.6773 14.3 13.5679 13.8955 13.3508 13.5631C13.1312 13.2307 12.809 12.9873 12.3816 12.833ZM8.47144 10.4365H10.2963C10.6974 10.4365 11.0282 10.4798 11.2876 10.5654C11.5878 10.6901 11.7379 10.9436 11.7379 11.3303C11.7379 11.6771 11.6235 11.9197 11.397 12.0562C11.1689 12.1927 10.873 12.2614 10.51 12.2614H8.47144V10.4365ZM10.5075 15.8357C10.8713 15.8357 11.1554 15.7874 11.3572 15.6899C11.7252 15.5084 11.9084 15.1658 11.9084 14.657C11.9084 14.2254 11.7312 13.9303 11.375 13.7692C11.1749 13.6801 10.895 13.6326 10.5355 13.6301H8.47144V15.8357H10.5075Z"/>
<path d="M15.47 9.38585H19.063V10.4153H15.47V9.38585Z"/>
<path fill-rule="evenodd" clip-rule="evenodd" d="M19.816 12.1842C20.0721 12.548 20.2366 12.9695 20.3112 13.4486C20.3553 13.7284 20.3723 14.1346 20.3655 14.6629H15.8482C15.8753 15.276 16.089 15.7068 16.4978 15.9528C16.7454 16.1062 17.0422 16.1834 17.3924 16.1834C17.7604 16.1834 18.0606 16.0901 18.2913 15.9036C18.4185 15.8018 18.5296 15.6619 18.6254 15.483H20.2807C20.2366 15.8451 20.0356 16.2139 19.6803 16.5888C19.1249 17.1824 18.3472 17.48 17.3475 17.48C16.5215 17.48 15.7939 17.2298 15.1639 16.7278C14.5312 16.2267 14.2166 15.41 14.2166 14.2796C14.2166 13.2196 14.5016 12.4064 15.0706 11.8408C15.6413 11.2769 16.379 10.9928 17.2872 10.9928C17.8283 10.992 18.3142 11.0878 18.7458 11.2794C19.1791 11.4702 19.5353 11.7721 19.816 12.1842ZM16.3214 12.6608C16.0924 12.894 15.9483 13.2095 15.8889 13.6072H18.6831C18.6534 13.1823 18.5084 12.8609 18.2514 12.6396C17.9911 12.42 17.6714 12.3106 17.2889 12.3106C16.8743 12.3114 16.5503 12.4285 16.3214 12.6608Z"/>
</svg>
