<svg width="27" height="27" viewBox="0 0 27 27" xmlns="http://www.w3.org/2000/svg">
<path fill-rule="evenodd" clip-rule="evenodd" d="M7.88802 3.1664C5.281 3.1664 3.16642 5.27939 3.16642 7.8896V19.048C3.16642 21.6564 5.2808 23.7696 7.88802 23.7696H19.048C21.6566 23.7696 23.7696 21.6566 23.7696 19.048V7.8896C23.7696 5.27918 21.6564 3.1664 19.048 3.1664H7.88802ZM0.833618 7.8896C0.833618 3.99102 3.99263 0.833603 7.88802 0.833603H19.048C22.9452 0.833603 26.1024 3.99122 26.1024 7.8896V19.048C26.1024 22.945 22.945 26.1024 19.048 26.1024H7.88802C3.99284 26.1024 0.833618 22.9452 0.833618 19.048V7.8896Z"/>
<path fill-rule="evenodd" clip-rule="evenodd" d="M13.4683 8.99744C10.9991 8.99744 8.99794 10.9982 8.99794 13.4694C8.99794 15.937 10.9987 17.9382 13.4683 17.9382C15.938 17.9382 17.9387 15.937 17.9387 13.4694C17.9387 10.9982 15.9375 8.99744 13.4683 8.99744ZM6.66514 13.4694C6.66514 9.71027 9.71034 6.66464 13.4683 6.66464C17.2263 6.66464 20.2715 9.71027 20.2715 13.4694C20.2715 17.2258 17.2259 20.271 13.4683 20.271C9.71077 20.271 6.66514 17.2258 6.66514 13.4694Z"/>
<path fill-rule="evenodd" clip-rule="evenodd" d="M21.2434 6.27648C21.2434 7.02848 20.6338 7.63808 19.8818 7.63808C19.1314 7.63808 18.5218 7.02848 18.5218 6.27648C18.5218 5.52448 19.1314 4.91488 19.8818 4.91488C20.6338 4.91488 21.2434 5.52448 21.2434 6.27648Z"/>
</svg>
