<svg width="32" height="32" viewBox="0 0 32 32" xmlns="http://www.w3.org/2000/svg">
<path fill-rule="evenodd" clip-rule="evenodd" d="M9.67411 4C6.54119 4 4 6.53945 4 9.67639V22.3254C4 25.4604 6.54101 28 9.67411 28H22.3241C25.4592 28 28 25.4602 28 22.3254V9.67639C28 6.53963 25.459 4 22.3241 4H9.67411ZM2 9.67639C2 5.43502 5.43649 2 9.67411 2H22.3241C26.5633 2 30 5.43484 30 9.67639V22.3254C30 26.5653 26.5632 30 22.3241 30H9.67411C5.43667 30 2 26.5652 2 22.3254V9.67639Z"/>
<path fill-rule="evenodd" clip-rule="evenodd" d="M12.2941 10.3362H7.99414V21.6344H12.3608C13.0617 21.6344 13.6643 21.5736 14.1646 21.4467C14.6622 21.3195 15.0883 21.1303 15.4346 20.8701C15.7869 20.6064 16.0742 20.2369 16.3008 19.7751C16.5315 19.3043 16.6466 18.797 16.6466 18.2548C16.6466 17.5757 16.456 16.9773 16.0691 16.4685C15.7806 16.0891 15.4024 15.7968 14.943 15.5881C15.2615 15.3643 15.5189 15.0967 15.711 14.7839C15.9843 14.3389 16.1236 13.8595 16.1236 13.3498C16.1236 12.8036 15.9672 12.2836 15.6631 11.7929C15.3541 11.2941 14.9231 10.9247 14.3805 10.6864C13.8393 10.4487 13.1377 10.3362 12.2941 10.3362ZM9.92285 14.8747V12.1117H11.8308C12.6054 12.1117 13.1189 12.1628 13.3985 12.2503C13.6639 12.3342 13.8592 12.4843 13.9983 12.705C14.1426 12.9348 14.2178 13.2027 14.2178 13.5187C14.2178 13.8554 14.1364 14.1144 13.9901 14.3129C13.8445 14.5106 13.6213 14.6637 13.2988 14.7596L13.2974 14.76C13.0608 14.8318 12.6383 14.8747 12.008 14.8747H9.92285ZM9.92285 19.8628V16.6496H12.1695C12.8486 16.6496 13.3426 16.7092 13.6706 16.8177L13.6716 16.8181C13.9887 16.9215 14.2287 17.0994 14.4021 17.3489C14.576 17.599 14.6671 17.898 14.6671 18.2558C14.6671 18.5643 14.6037 18.8242 14.484 19.046C14.3589 19.2761 14.2056 19.4412 14.0266 19.5541C13.8386 19.6703 13.5958 19.7594 13.29 19.8141L13.2888 19.8143C13.1272 19.844 12.8226 19.8628 12.3617 19.8628H9.92285Z"/>
<path fill-rule="evenodd" clip-rule="evenodd" d="M21.4043 13.1367C20.2613 13.1367 19.3153 13.5242 18.5854 14.3061C17.8525 15.0933 17.502 16.1826 17.502 17.5414C17.502 18.8569 17.85 19.9145 18.5758 20.6794C19.3027 21.4414 20.2793 21.8126 21.4798 21.8126C22.4285 21.8126 23.2313 21.5806 23.8693 21.0993C24.5039 20.6191 24.9312 19.9474 25.1595 19.101L25.2345 18.8228L23.3805 18.5959L23.313 18.7837C23.1223 19.3141 22.8732 19.6738 22.5802 19.8903C22.2861 20.1092 21.9261 20.2235 21.486 20.2235C20.8989 20.2235 20.4199 20.0215 20.0309 19.6162C19.6909 19.2597 19.4719 18.7506 19.3939 18.0652H25.1967L25.2048 17.8236C25.2101 17.6643 25.212 17.5439 25.212 17.4624C25.212 16.1285 24.8688 15.0587 24.1509 14.2864C23.4362 13.5169 22.514 13.1367 21.4043 13.1367ZM20.058 15.2658C20.425 14.9066 20.8737 14.7258 21.4184 14.7258C22.0181 14.7258 22.4951 14.9503 22.869 15.4027C23.0629 15.6359 23.2066 15.9855 23.2806 16.4734H19.473C19.549 15.9694 19.748 15.572 20.058 15.2658Z"/>
<path d="M24.2382 10.75H18.7653L18.7461 12.25H24.2515L24.2382 10.75Z"/>
</svg>
