<svg width="27" height="27" viewBox="0 0 27 27" xmlns="http://www.w3.org/2000/svg">
<path fill-rule="evenodd" clip-rule="evenodd" d="M7.88802 3.1664C5.2808 3.1664 3.16642 5.27959 3.16642 7.888V19.0464C3.16642 21.6566 5.281 23.7696 7.88802 23.7696H19.048C21.655 23.7696 23.7696 21.6566 23.7696 19.0464V7.888C23.7696 5.27959 21.6552 3.1664 19.048 3.1664H7.88802ZM0.833618 7.888C0.833618 3.99081 3.99284 0.833603 7.88802 0.833603H19.048C22.9432 0.833603 26.1024 3.99081 26.1024 7.888V19.0464C26.1024 22.945 22.9434 26.1024 19.048 26.1024H7.88802C3.99263 26.1024 0.833618 22.945 0.833618 19.0464V7.888Z"/>
<path fill-rule="evenodd" clip-rule="evenodd" d="M19.4794 12.3266C18.041 15.3986 14.5706 19.5794 12.377 19.5794C10.2154 19.5794 9.90338 14.9698 8.72258 11.901C8.14178 10.3922 7.76578 10.7378 6.67778 11.4994L6.01218 10.6434C7.60098 9.24656 9.19138 7.62576 10.1674 7.53456C11.2666 7.42736 11.945 8.17936 12.1978 9.79056C12.5322 11.9058 12.9994 15.189 13.8154 15.189C14.4506 15.189 16.0186 12.5842 16.0986 11.653C16.2426 10.2914 15.097 10.2482 14.1018 10.6738C15.6746 5.52016 22.2202 6.47056 19.4794 12.3266Z"/>
</svg>
