<svg width="32" height="32" viewBox="0 0 32 32" xmlns="http://www.w3.org/2000/svg">
<path fill-rule="evenodd" clip-rule="evenodd" d="M9.67457 3.99963C6.53981 3.99963 4 6.54047 4 9.67555V22.3237C4 25.4604 6.53963 27.9996 9.67457 27.9996H22.3254C25.4587 27.9996 28 25.4603 28 22.3237V9.67555C28 6.54065 25.4586 3.99963 22.3254 3.99963H9.67457ZM2 9.67555C2 5.43648 5.43466 1.99963 9.67457 1.99963H22.3254C26.5633 1.99963 30 5.4363 30 9.67555V22.3237C30 26.565 26.5632 29.9996 22.3254 29.9996H9.67457C5.43484 29.9996 2 26.5648 2 22.3237V9.67555Z"/>
<path fill-rule="evenodd" clip-rule="evenodd" d="M22.8141 14.7068C21.1854 18.1889 17.2514 22.9279 14.7647 22.9279C12.3126 22.9279 11.9589 17.701 10.6185 14.2225C9.96194 12.5123 9.53571 12.9058 8.30055 13.7691L7.54785 12.7988C9.3489 11.2155 11.1518 9.37836 12.26 9.27498C13.5042 9.15347 14.2732 10.0059 14.5598 11.8322C14.9389 14.2298 15.4685 17.9513 16.3935 17.9513C17.1135 17.9513 18.891 14.9988 18.9817 13.9432C19.1449 12.398 17.8463 12.3509 16.7181 12.8333C18.501 6.99164 25.9229 8.06892 22.8141 14.7068Z"/></svg>